<svg xmlns="http://www.w3.org/2000/svg" width="1120" height="460" viewBox="0 0 1120 460" role="img" aria-label="Research Timeline"><defs><marker id="arrow-solid" markerWidth="12" markerHeight="12" refX="10" refY="4" orient="auto" markerUnits="strokeWidth"><path d="M0,0 L0,8 L10,4 z" fill="#556B7D"/></marker><marker id="arrow-dashed" markerWidth="12" markerHeight="12" refX="10" refY="4" orient="auto" markerUnits="strokeWidth"><path d="M0,0 L0,8 L10,4 z" fill="#8B7B55"/></marker></defs><style>text,tspan{font-family:Microsoft YaHei, PingFang SC, Hiragino Sans GB, Noto Sans CJK SC, SimHei, SimSun, Arial Unicode MS, Segoe UI, Arial, sans-serif;} .small{font-size:12px;fill:#4B5868} .label{font-size:15px;font-weight:600;fill:#1F2D3D} .subtitle{font-size:11px;fill:#556270} .lane{font-size:14px;font-weight:700;fill:#34495E} .caption{font-size:16px;font-weight:700;fill:#24364A}</style><rect x="0" y="0" width="100%" height="100%" fill="#FFFFFF"/><rect x="20" y="20" width="1080" height="420" rx="20" ry="20" fill="#FFFFFF" stroke="#C8D2DC" stroke-width="1.3"/><text x="560.0" y="48" text-anchor="middle" class="caption">Research Timeline</text><line x1="90.0" y1="250.0" x2="1030.0" y2="250.0" stroke="#6D8297" stroke-width="3.0"/><line x1="90.0" y1="250.0" x2="90.0" y2="174.0" stroke="#9FB0C1" stroke-width="1.4" stroke-dasharray="4,4"/><circle cx="90.0" cy="250.0" r="8" fill="#FFFFFF" stroke="#2D5F8B" stroke-width="3.0"/><rect x="-2.0" y="112.0" width="184" height="62" rx="16" ry="16" fill="#F8FAFC" stroke="#D6DEE6" stroke-width="1.0"/><rect x="14.0" y="122.0" width="72" height="18" rx="9" ry="9" fill="#EAF2FB" stroke="#C7D3DF" stroke-width="0.8"/><text x="50.0" y="135.0" text-anchor="middle" class="small">2026.01</text><text x="90.0" y="154.0" text-anchor="middle" class="small"><tspan x="90.0" dy="0">Problem</tspan><tspan x="90.0" dy="14">Scoping…</tspan></text><line x1="560.0" y1="250.0" x2="560.0" y2="276.0" stroke="#9FB0C1" stroke-width="1.4" stroke-dasharray="4,4"/><circle cx="560.0" cy="250.0" r="8" fill="#FFFFFF" stroke="#2D5F8B" stroke-width="3.0"/><rect x="468.0" y="286.0" width="184" height="62" rx="16" ry="16" fill="#F8FAFC" stroke="#D6DEE6" stroke-width="1.0"/><rect x="484.0" y="296.0" width="72" height="18" rx="9" ry="9" fill="#EAF2FB" stroke="#C7D3DF" stroke-width="0.8"/><text x="520.0" y="309.0" text-anchor="middle" class="small">2026.02</text><text x="560.0" y="328.0" text-anchor="middle" class="small"><tspan x="560.0" dy="0">Evidence</tspan><tspan x="560.0" dy="14">Cleaning…</tspan></text><line x1="1030.0" y1="250.0" x2="1030.0" y2="174.0" stroke="#9FB0C1" stroke-width="1.4" stroke-dasharray="4,4"/><circle cx="1030.0" cy="250.0" r="8" fill="#FFFFFF" stroke="#2D5F8B" stroke-width="3.0"/><rect x="938.0" y="112.0" width="184" height="62" rx="16" ry="16" fill="#F8FAFC" stroke="#D6DEE6" stroke-width="1.0"/><rect x="954.0" y="122.0" width="72" height="18" rx="9" ry="9" fill="#EAF2FB" stroke="#C7D3DF" stroke-width="0.8"/><text x="990.0" y="135.0" text-anchor="middle" class="small">2026.03</text><text x="1030.0" y="154.0" text-anchor="middle" class="small"><tspan x="1030.0" dy="0">Cluster</tspan><tspan x="1030.0" dy="14">Analysis…</tspan></text></svg>