<svg xmlns="http://www.w3.org/2000/svg" width="980" height="520" viewBox="0 0 980 520" role="img" aria-label="Quality Trend"><defs><marker id="arrow-solid" markerWidth="12" markerHeight="12" refX="10" refY="4" orient="auto" markerUnits="strokeWidth"><path d="M0,0 L0,8 L10,4 z" fill="#556B7D"/></marker><marker id="arrow-dashed" markerWidth="12" markerHeight="12" refX="10" refY="4" orient="auto" markerUnits="strokeWidth"><path d="M0,0 L0,8 L10,4 z" fill="#8B7B55"/></marker></defs><style>text,tspan{font-family:Microsoft YaHei, PingFang SC, Hiragino Sans GB, Noto Sans CJK SC, SimHei, SimSun, Arial Unicode MS, Segoe UI, Arial, sans-serif;} .small{font-size:12px;fill:#4B5868} .label{font-size:15px;font-weight:600;fill:#1F2D3D} .subtitle{font-size:11px;fill:#556270} .lane{font-size:14px;font-weight:700;fill:#34495E} .caption{font-size:16px;font-weight:700;fill:#24364A}</style><rect x="0" y="0" width="100%" height="100%" fill="#FFFFFF"/><rect x="20" y="20" width="940" height="480" rx="20" ry="20" fill="#FFFFFF" stroke="#C8D2DC" stroke-width="1.3"/><text x="490.0" y="48" text-anchor="middle" class="caption">Quality Trend</text><rect x="92.0" y="96.0" width="810.0" height="320.0" fill="#F8FAFC" stroke="#D6DEE6" stroke-width="1.0" rx="14" ry="14"/><line x1="92.0" y1="416.0" x2="902.0" y2="416.0" stroke="#DCE4EC" stroke-width="1.0"/><text x="80.0" y="420.0" text-anchor="end" class="small">69</text><line x1="92.0" y1="352.0" x2="902.0" y2="352.0" stroke="#DCE4EC" stroke-width="1.0"/><text x="80.0" y="356.0" text-anchor="end" class="small">73</text><line x1="92.0" y1="288.0" x2="902.0" y2="288.0" stroke="#DCE4EC" stroke-width="1.0"/><text x="80.0" y="292.0" text-anchor="end" class="small">77</text><line x1="92.0" y1="224.0" x2="902.0" y2="224.0" stroke="#DCE4EC" stroke-width="1.0"/><text x="80.0" y="228.0" text-anchor="end" class="small">81</text><line x1="92.0" y1="160.0" x2="902.0" y2="160.0" stroke="#DCE4EC" stroke-width="1.0"/><text x="80.0" y="164.0" text-anchor="end" class="small">85</text><line x1="92.0" y1="96.0" x2="902.0" y2="96.0" stroke="#DCE4EC" stroke-width="1.0"/><text x="80.0" y="100.0" text-anchor="end" class="small">89</text><path d="M 92.0 368.0 M L 362.0 272.0 M L 632.0 160.0 M L 902.0 96.0" fill="none" stroke="#2D5F8B" stroke-width="3.0" stroke-linejoin="round" stroke-linecap="round"/><circle cx="92.0" cy="368.0" r="4.5" fill="#FFFFFF" stroke="#2D5F8B" stroke-width="2.0"/><circle cx="362.0" cy="272.0" r="4.5" fill="#FFFFFF" stroke="#2D5F8B" stroke-width="2.0"/><circle cx="632.0" cy="160.0" r="4.5" fill="#FFFFFF" stroke="#2D5F8B" stroke-width="2.0"/><circle cx="902.0" cy="96.0" r="4.5" fill="#FFFFFF" stroke="#2D5F8B" stroke-width="2.0"/><line x1="926.0" y1="124.0" x2="952.0" y2="124.0" stroke="#2D5F8B" stroke-width="3.0"/><circle cx="939.0" cy="124.0" r="4.2" fill="#FFFFFF" stroke="#2D5F8B" stroke-width="2.0"/><text x="960.0" y="128.0" text-anchor="start" class="small">Consistency</text><path d="M 92.0 416.0 M L 362.0 320.0 M L 632.0 240.0 M L 902.0 144.0" fill="none" stroke="#A66A3F" stroke-width="3.0" stroke-linejoin="round" stroke-linecap="round"/><circle cx="92.0" cy="416.0" r="4.5" fill="#FFFFFF" stroke="#A66A3F" stroke-width="2.0"/><circle cx="362.0" cy="320.0" r="4.5" fill="#FFFFFF" stroke="#A66A3F" stroke-width="2.0"/><circle cx="632.0" cy="240.0" r="4.5" fill="#FFFFFF" stroke="#A66A3F" stroke-width="2.0"/><circle cx="902.0" cy="144.0" r="4.5" fill="#FFFFFF" stroke="#A66A3F" stroke-width="2.0"/><line x1="926.0" y1="152.0" x2="952.0" y2="152.0" stroke="#A66A3F" stroke-width="3.0"/><circle cx="939.0" cy="152.0" r="4.2" fill="#FFFFFF" stroke="#A66A3F" stroke-width="2.0"/><text x="960.0" y="156.0" text-anchor="start" class="small">Coverage</text><line x1="92.0" y1="416.0" x2="92.0" y2="422.0" stroke="#A9B6C3" stroke-width="1.0"/><text x="92.0" y="440.0" text-anchor="middle" class="small"><tspan x="92.0" dy="0">T1</tspan></text><line x1="362.0" y1="416.0" x2="362.0" y2="422.0" stroke="#A9B6C3" stroke-width="1.0"/><text x="362.0" y="440.0" text-anchor="middle" class="small"><tspan x="362.0" dy="0">T2</tspan></text><line x1="632.0" y1="416.0" x2="632.0" y2="422.0" stroke="#A9B6C3" stroke-width="1.0"/><text x="632.0" y="440.0" text-anchor="middle" class="small"><tspan x="632.0" dy="0">T3</tspan></text><line x1="902.0" y1="416.0" x2="902.0" y2="422.0" stroke="#A9B6C3" stroke-width="1.0"/><text x="902.0" y="440.0" text-anchor="middle" class="small"><tspan x="902.0" dy="0">T4</tspan></text></svg>