<svg xmlns="http://www.w3.org/2000/svg" width="1080" height="838" viewBox="0 0 1080 838" role="img" aria-label="核心业务流程流程图"><defs><marker id="arrow-solid" markerWidth="12" markerHeight="12" refX="10" refY="4" orient="auto" markerUnits="strokeWidth"><path d="M0,0 L0,8 L10,4 z" fill="#556B7D"/></marker><marker id="arrow-dashed" markerWidth="12" markerHeight="12" refX="10" refY="4" orient="auto" markerUnits="strokeWidth"><path d="M0,0 L0,8 L10,4 z" fill="#8B7B55"/></marker></defs><style>text,tspan{font-family:Microsoft YaHei, PingFang SC, Hiragino Sans GB, Noto Sans CJK SC, SimHei, SimSun, Arial Unicode MS, Segoe UI, Arial, sans-serif;} .small{font-size:12px;fill:#4B5868} .label{font-size:15px;font-weight:600;fill:#1F2D3D} .subtitle{font-size:11px;fill:#556270} .lane{font-size:14px;font-weight:700;fill:#34495E} .caption{font-size:16px;font-weight:700;fill:#24364A}</style><rect x="0" y="0" width="100%" height="100%" fill="#FFFFFF"/><rect x="20" y="20" width="1040" height="798" rx="20" ry="20" fill="#FFFFFF" stroke="#C8D2DC" stroke-width="1.3"/><text x="540.0" y="48" text-anchor="middle" class="caption">核心业务流程流程图</text><rect x="36.0" y="74.0" width="1008.0" height="190.0" rx="18" ry="18" fill="#F7F9FC" stroke="#D6DEE6" stroke-width="1.0"/><rect x="50.0" y="86.0" width="108" height="24" rx="12" ry="12" fill="#E3EBF4" stroke="#C7D3DF" stroke-width="0.8"/><text x="104.0" y="102.0" text-anchor="middle" class="lane">任务输入</text><rect x="36.0" y="282.0" width="1008.0" height="308.0" rx="18" ry="18" fill="#F2F5F8" stroke="#D6DEE6" stroke-width="1.0"/><rect x="50.0" y="294.0" width="108" height="24" rx="12" ry="12" fill="#E3EBF4" stroke="#C7D3DF" stroke-width="0.8"/><text x="104.0" y="310.0" text-anchor="middle" class="lane">分析处理</text><rect x="36.0" y="608.0" width="1008.0" height="190.0" rx="18" ry="18" fill="#F8FAFC" stroke="#D6DEE6" stroke-width="1.0"/><rect x="50.0" y="620.0" width="108" height="24" rx="12" ry="12" fill="#E3EBF4" stroke="#C7D3DF" stroke-width="0.8"/><text x="104.0" y="636.0" text-anchor="middle" class="lane">结果校核</text><path d="M 402.0 166.0 L 540.0 166.0 L 540.0 166.0 L 678.0 166.0" fill="none" stroke="#556B7D" stroke-width="2.2" marker-end="url(#arrow-solid)"/><path d="M 783.0 210.0 L 783.0 270.0 L 297.0 270.0 L 297.0 330.0" fill="none" stroke="#556B7D" stroke-width="2.2" marker-end="url(#arrow-solid)"/><path d="M 402.0 374.0 L 540.0 374.0 L 540.0 374.0 L 678.0 374.0" fill="none" stroke="#556B7D" stroke-width="2.2" marker-end="url(#arrow-solid)"/><path d="M 783.0 418.0 L 783.0 430.0 L 297.0 430.0 L 297.0 442.0" fill="none" stroke="#556B7D" stroke-width="2.2" marker-end="url(#arrow-solid)"/><path d="M 297.0 530.0 L 297.0 593.0 L 297.0 593.0 L 297.0 656.0" fill="none" stroke="#556B7D" stroke-width="2.2" marker-end="url(#arrow-solid)"/><path d="M 402.0 700.0 L 540.0 700.0 L 540.0 700.0 L 678.0 700.0" fill="none" stroke="#556B7D" stroke-width="2.2" marker-end="url(#arrow-solid)"/><path d="M 297.0 656.0 L 297.0 537.0 L 783.0 537.0 L 783.0 418.0" fill="none" stroke="#556B7D" stroke-width="2.2" marker-end="url(#arrow-solid)"/><rect x="480.5" y="513.0" width="119.0" height="20" rx="10" ry="10" fill="#FFFFFF" stroke="#D4DCE4" stroke-width="0.9"/><text x="540.0" y="527.0" text-anchor="middle" class="small">校核失败回退重规划</text><path d="M 783.0 656.0 L 783.0 593.0 L 297.0 593.0 L 297.0 530.0" fill="none" stroke="#556B7D" stroke-width="2.2" marker-end="url(#arrow-solid)"/><rect x="491.5" y="569.0" width="97.0" height="20" rx="10" ry="10" fill="#FFFFFF" stroke="#D4DCE4" stroke-width="0.9"/><text x="540.0" y="583.0" text-anchor="middle" class="small">局部修改再生成</text><rect x="192.0" y="122.0" width="210.0" height="88.0" rx="44.0" ry="44.0" fill="#ECF4EA" stroke="#5B8A61" stroke-width="1.8"/><line x1="208.0" y1="154.0" x2="386.0" y2="154.0" stroke="#5B8A61" stroke-width="1.2" opacity="0.35"/><rect x="204.0" y="132.0" width="50.0" height="20" rx="10" ry="10" fill="#5B8A61" opacity="0.12" stroke="#5B8A61" stroke-width="0.8"/><text x="229.0" y="146.0" text-anchor="middle" class="small" fill="#5B8A61">入口</text><text x="297.0" y="170.0" text-anchor="middle" class="label"><tspan x="297.0" dy="0">用户提交写作任务</tspan></text><rect x="678.0" y="122.0" width="210.0" height="88.0" rx="18.0" ry="18.0" fill="#EEF3F8" stroke="#4E6A85" stroke-width="1.8"/><line x1="694.0" y1="154.0" x2="872.0" y2="154.0" stroke="#4E6A85" stroke-width="1.2" opacity="0.35"/><rect x="690.0" y="132.0" width="50.0" height="20" rx="10" ry="10" fill="#4E6A85" opacity="0.12" stroke="#4E6A85" stroke-width="0.8"/><text x="715.0" y="146.0" text-anchor="middle" class="small" fill="#4E6A85">流程</text><text x="783.0" y="170.0" text-anchor="middle" class="label"><tspan x="783.0" dy="0">需求解析与任务建</tspan><tspan x="783.0" dy="16">模</tspan></text><rect x="192.0" y="330.0" width="210.0" height="88.0" rx="18.0" ry="18.0" fill="#EAF2FB" stroke="#2D5F8B" stroke-width="1.8"/><line x1="208.0" y1="362.0" x2="386.0" y2="362.0" stroke="#2D5F8B" stroke-width="1.2" opacity="0.35"/><rect x="204.0" y="340.0" width="50.0" height="20" rx="10" ry="10" fill="#2D5F8B" opacity="0.12" stroke="#2D5F8B" stroke-width="0.8"/><text x="229.0" y="354.0" text-anchor="middle" class="small" fill="#2D5F8B">能力</text><text x="297.0" y="378.0" text-anchor="middle" class="label"><tspan x="297.0" dy="0">资料检索与证据汇</tspan><tspan x="297.0" dy="16">聚</tspan></text><rect x="678.0" y="330.0" width="210.0" height="88.0" rx="18.0" ry="18.0" fill="#EAF2FB" stroke="#2D5F8B" stroke-width="1.8"/><line x1="694.0" y1="362.0" x2="872.0" y2="362.0" stroke="#2D5F8B" stroke-width="1.2" opacity="0.35"/><rect x="690.0" y="340.0" width="50.0" height="20" rx="10" ry="10" fill="#2D5F8B" opacity="0.12" stroke="#2D5F8B" stroke-width="0.8"/><text x="715.0" y="354.0" text-anchor="middle" class="small" fill="#2D5F8B">能力</text><text x="783.0" y="378.0" text-anchor="middle" class="label"><tspan x="783.0" dy="0">章节规划与约束生</tspan><tspan x="783.0" dy="16">成</tspan></text><rect x="192.0" y="442.0" width="210.0" height="88.0" rx="18.0" ry="18.0" fill="#EAF2FB" stroke="#2D5F8B" stroke-width="1.8"/><line x1="208.0" y1="474.0" x2="386.0" y2="474.0" stroke="#2D5F8B" stroke-width="1.2" opacity="0.35"/><rect x="204.0" y="452.0" width="50.0" height="20" rx="10" ry="10" fill="#2D5F8B" opacity="0.12" stroke="#2D5F8B" stroke-width="0.8"/><text x="229.0" y="466.0" text-anchor="middle" class="small" fill="#2D5F8B">能力</text><text x="297.0" y="490.0" text-anchor="middle" class="label"><tspan x="297.0" dy="0">分段写作代理生成</tspan></text><polygon points="297.0,656.0 402.0,700.0 297.0,744.0 192.0,700.0" fill="#FBF2D8" stroke="#A97A12" stroke-width="1.8"/><rect x="204.0" y="666.0" width="50.0" height="20" rx="10" ry="10" fill="#A97A12" opacity="0.12" stroke="#A97A12" stroke-width="0.8"/><text x="229.0" y="680.0" text-anchor="middle" class="small" fill="#A97A12">校核</text><text x="297.0" y="698.2" text-anchor="middle" class="label"><tspan x="297.0" dy="0">事实校验与格式检</tspan><tspan x="297.0" dy="16">查</tspan></text><rect x="678.0" y="656.0" width="210.0" height="88.0" rx="18.0" ry="18.0" fill="#EEF3F8" stroke="#4E6A85" stroke-width="1.8"/><line x1="694.0" y1="688.0" x2="872.0" y2="688.0" stroke="#4E6A85" stroke-width="1.2" opacity="0.35"/><rect x="690.0" y="666.0" width="50.0" height="20" rx="10" ry="10" fill="#4E6A85" opacity="0.12" stroke="#4E6A85" stroke-width="0.8"/><text x="715.0" y="680.0" text-anchor="middle" class="small" fill="#4E6A85">流程</text><text x="783.0" y="704.0" text-anchor="middle" class="label"><tspan x="783.0" dy="0">人工修订与结果导</tspan><tspan x="783.0" dy="16">出</tspan></text></svg>