<svg xmlns="http://www.w3.org/2000/svg" width="1180" height="1046" viewBox="0 0 1180 1046" role="img" aria-label="智能写作代理系统总体架构"><defs><marker id="arrow-solid" markerWidth="12" markerHeight="12" refX="10" refY="4" orient="auto" markerUnits="strokeWidth"><path d="M0,0 L0,8 L10,4 z" fill="#556B7D"/></marker><marker id="arrow-dashed" markerWidth="12" markerHeight="12" refX="10" refY="4" orient="auto" markerUnits="strokeWidth"><path d="M0,0 L0,8 L10,4 z" fill="#8B7B55"/></marker></defs><style>text,tspan{font-family:Microsoft YaHei, PingFang SC, Hiragino Sans GB, Noto Sans CJK SC, SimHei, SimSun, Arial Unicode MS, Segoe UI, Arial, sans-serif;} .small{font-size:12px;fill:#4B5868} .label{font-size:15px;font-weight:600;fill:#1F2D3D} .subtitle{font-size:11px;fill:#556270} .lane{font-size:14px;font-weight:700;fill:#34495E} .caption{font-size:16px;font-weight:700;fill:#24364A}</style><rect x="0" y="0" width="100%" height="100%" fill="#FFFFFF"/><rect x="20" y="20" width="1140" height="1006" rx="20" ry="20" fill="#FFFFFF" stroke="#C8D2DC" stroke-width="1.3"/><text x="590.0" y="48" text-anchor="middle" class="caption">智能写作代理系统总体架构</text><rect x="36.0" y="74.0" width="1108.0" height="190.0" rx="18" ry="18" fill="#F7F9FC" stroke="#D6DEE6" stroke-width="1.0"/><rect x="50.0" y="86.0" width="108" height="24" rx="12" ry="12" fill="#E3EBF4" stroke="#C7D3DF" stroke-width="0.8"/><text x="104.0" y="102.0" text-anchor="middle" class="lane">接入层</text><rect x="36.0" y="282.0" width="1108.0" height="190.0" rx="18" ry="18" fill="#F2F5F8" stroke="#D6DEE6" stroke-width="1.0"/><rect x="50.0" y="294.0" width="108" height="24" rx="12" ry="12" fill="#E3EBF4" stroke="#C7D3DF" stroke-width="0.8"/><text x="104.0" y="310.0" text-anchor="middle" class="lane">编排层</text><rect x="36.0" y="490.0" width="1108.0" height="308.0" rx="18" ry="18" fill="#F8FAFC" stroke="#D6DEE6" stroke-width="1.0"/><rect x="50.0" y="502.0" width="108" height="24" rx="12" ry="12" fill="#E3EBF4" stroke="#C7D3DF" stroke-width="0.8"/><text x="104.0" y="518.0" text-anchor="middle" class="lane">能力层</text><rect x="36.0" y="816.0" width="1108.0" height="190.0" rx="18" ry="18" fill="#F3F7FB" stroke="#D6DEE6" stroke-width="1.0"/><rect x="50.0" y="828.0" width="108" height="24" rx="12" ry="12" fill="#E3EBF4" stroke="#C7D3DF" stroke-width="0.8"/><text x="104.0" y="844.0" text-anchor="middle" class="lane">数据层</text><path d="M 590.0 210.0 L 590.0 374.0 L 188.0 374.0 L 188.0 538.0" fill="none" stroke="#556B7D" stroke-width="2.2" marker-end="url(#arrow-solid)"/><rect x="340.5" y="350.0" width="97.0" height="20" rx="10" ry="10" fill="#FFFFFF" stroke="#D4DCE4" stroke-width="0.9"/><text x="389.0" y="364.0" text-anchor="middle" class="small">写作请求/反馈</text><path d="M 188.0 538.0 L 188.0 478.0 L 590.0 478.0 L 590.0 418.0" fill="none" stroke="#556B7D" stroke-width="2.2" marker-end="url(#arrow-solid)"/><rect x="357.0" y="454.0" width="64.0" height="20" rx="10" ry="10" fill="#FFFFFF" stroke="#D4DCE4" stroke-width="0.9"/><text x="389.0" y="468.0" text-anchor="middle" class="small">任务提交</text><path d="M 590.0 418.0 L 590.0 478.0 L 456.0 478.0 L 456.0 538.0" fill="none" stroke="#556B7D" stroke-width="2.2" marker-end="url(#arrow-solid)"/><rect x="491.0" y="454.0" width="64.0" height="20" rx="10" ry="10" fill="#FFFFFF" stroke="#D4DCE4" stroke-width="0.9"/><text x="523.0" y="468.0" text-anchor="middle" class="small">提纲规划</text><path d="M 590.0 418.0 L 590.0 478.0 L 724.0 478.0 L 724.0 538.0" fill="none" stroke="#556B7D" stroke-width="2.2" marker-end="url(#arrow-solid)"/><rect x="625.0" y="454.0" width="64.0" height="20" rx="10" ry="10" fill="#FFFFFF" stroke="#D4DCE4" stroke-width="0.9"/><text x="657.0" y="468.0" text-anchor="middle" class="small">证据检索</text><path d="M 590.0 418.0 L 590.0 478.0 L 992.0 478.0 L 992.0 538.0" fill="none" stroke="#556B7D" stroke-width="2.2" marker-end="url(#arrow-solid)"/><rect x="759.0" y="454.0" width="64.0" height="20" rx="10" ry="10" fill="#FFFFFF" stroke="#D4DCE4" stroke-width="0.9"/><text x="791.0" y="468.0" text-anchor="middle" class="small">章节生成</text><path d="M 590.0 418.0 L 590.0 534.0 L 188.0 534.0 L 188.0 650.0" fill="none" stroke="#556B7D" stroke-width="2.2" marker-end="url(#arrow-solid)"/><rect x="357.0" y="510.0" width="64.0" height="20" rx="10" ry="10" fill="#FFFFFF" stroke="#D4DCE4" stroke-width="0.9"/><text x="389.0" y="524.0" text-anchor="middle" class="small">质量校验</text><path d="M 590.0 418.0 L 590.0 534.0 L 456.0 534.0 L 456.0 650.0" fill="none" stroke="#556B7D" stroke-width="2.2" marker-end="url(#arrow-solid)"/><rect x="491.0" y="510.0" width="64.0" height="20" rx="10" ry="10" fill="#FFFFFF" stroke="#D4DCE4" stroke-width="0.9"/><text x="523.0" y="524.0" text-anchor="middle" class="small">文档导出</text><path d="M 724.0 626.0 L 724.0 745.0 L 232.7 745.0 L 232.7 864.0" fill="none" stroke="#556B7D" stroke-width="2.2" marker-end="url(#arrow-solid)"/><rect x="446.3" y="721.0" width="64.0" height="20" rx="10" ry="10" fill="#FFFFFF" stroke="#D4DCE4" stroke-width="0.9"/><text x="478.3" y="735.0" text-anchor="middle" class="small">检索索引</text><path d="M 456.0 626.0 L 456.0 745.0 L 590.0 745.0 L 590.0 864.0" fill="none" stroke="#556B7D" stroke-width="2.2" marker-end="url(#arrow-solid)"/><rect x="474.5" y="721.0" width="97.0" height="20" rx="10" ry="10" fill="#FFFFFF" stroke="#D4DCE4" stroke-width="0.9"/><text x="523.0" y="735.0" text-anchor="middle" class="small">读取模板/状态</text><path d="M 992.0 626.0 L 992.0 638.0 L 724.0 638.0 L 724.0 650.0" fill="none" stroke="#556B7D" stroke-width="2.2" marker-end="url(#arrow-solid)"/><rect x="826.0" y="614.0" width="64.0" height="20" rx="10" ry="10" fill="#FFFFFF" stroke="#D4DCE4" stroke-width="0.9"/><text x="858.0" y="628.0" text-anchor="middle" class="small">模型推理</text><path d="M 293.0 694.0 L 456.0 694.0 L 456.0 694.0 L 619.0 694.0" fill="none" stroke="#556B7D" stroke-width="2.2" marker-end="url(#arrow-solid)"/><rect x="418.5" y="670.0" width="75.0" height="20" rx="10" ry="10" fill="#FFFFFF" stroke="#D4DCE4" stroke-width="0.9"/><text x="456.0" y="684.0" text-anchor="middle" class="small">一致性分析</text><path d="M 590.0 418.0 L 590.0 641.0 L 590.0 641.0 L 590.0 864.0" fill="none" stroke="#556B7D" stroke-width="2.2" marker-end="url(#arrow-solid)"/><rect x="552.5" y="617.0" width="75.0" height="20" rx="10" ry="10" fill="#FFFFFF" stroke="#D4DCE4" stroke-width="0.9"/><text x="590.0" y="631.0" text-anchor="middle" class="small">版本持久化</text><path d="M 188.0 626.0 L 188.0 745.0 L 947.3 745.0 L 947.3 864.0" fill="none" stroke="#556B7D" stroke-width="2.2" marker-end="url(#arrow-solid)"/><rect x="535.7" y="721.0" width="64.0" height="20" rx="10" ry="10" fill="#FFFFFF" stroke="#D4DCE4" stroke-width="0.9"/><text x="567.7" y="735.0" text-anchor="middle" class="small">访问日志</text><path d="M 590.0 418.0 L 590.0 641.0 L 947.3 641.0 L 947.3 864.0" fill="none" stroke="#556B7D" stroke-width="2.2" marker-end="url(#arrow-solid)"/><rect x="736.7" y="617.0" width="64.0" height="20" rx="10" ry="10" fill="#FFFFFF" stroke="#D4DCE4" stroke-width="0.9"/><text x="768.7" y="631.0" text-anchor="middle" class="small">运行审计</text><rect x="485.0" y="122.0" width="210.0" height="88.0" rx="44.0" ry="44.0" fill="#ECF4EA" stroke="#5B8A61" stroke-width="1.8"/><line x1="501.0" y1="154.0" x2="679.0" y2="154.0" stroke="#5B8A61" stroke-width="1.2" opacity="0.35"/><rect x="497.0" y="132.0" width="50.0" height="20" rx="10" ry="10" fill="#5B8A61" opacity="0.12" stroke="#5B8A61" stroke-width="0.8"/><text x="522.0" y="146.0" text-anchor="middle" class="small" fill="#5B8A61">入口</text><text x="590.0" y="170.0" text-anchor="middle" class="label"><tspan x="590.0" dy="0">用户终端</tspan></text><rect x="83.0" y="538.0" width="210.0" height="88.0" rx="18.0" ry="18.0" fill="#EEF3F8" stroke="#4E6A85" stroke-width="1.8"/><line x1="99.0" y1="570.0" x2="277.0" y2="570.0" stroke="#4E6A85" stroke-width="1.2" opacity="0.35"/><rect x="95.0" y="548.0" width="50.0" height="20" rx="10" ry="10" fill="#4E6A85" opacity="0.12" stroke="#4E6A85" stroke-width="0.8"/><text x="120.0" y="562.0" text-anchor="middle" class="small" fill="#4E6A85">流程</text><text x="188.0" y="586.0" text-anchor="middle" class="label"><tspan x="188.0" dy="0">接口网关</tspan></text><rect x="485.0" y="330.0" width="210.0" height="88.0" rx="18.0" ry="18.0" fill="#EAF2FB" stroke="#2D5F8B" stroke-width="1.8"/><line x1="501.0" y1="362.0" x2="679.0" y2="362.0" stroke="#2D5F8B" stroke-width="1.2" opacity="0.35"/><rect x="497.0" y="340.0" width="50.0" height="20" rx="10" ry="10" fill="#2D5F8B" opacity="0.12" stroke="#2D5F8B" stroke-width="0.8"/><text x="522.0" y="354.0" text-anchor="middle" class="small" fill="#2D5F8B">能力</text><text x="590.0" y="378.0" text-anchor="middle" class="label"><tspan x="590.0" dy="0">业务编排服务</tspan></text><rect x="351.0" y="538.0" width="210.0" height="88.0" rx="18.0" ry="18.0" fill="#EEF3F8" stroke="#4E6A85" stroke-width="1.8"/><line x1="367.0" y1="570.0" x2="545.0" y2="570.0" stroke="#4E6A85" stroke-width="1.2" opacity="0.35"/><rect x="363.0" y="548.0" width="50.0" height="20" rx="10" ry="10" fill="#4E6A85" opacity="0.12" stroke="#4E6A85" stroke-width="0.8"/><text x="388.0" y="562.0" text-anchor="middle" class="small" fill="#4E6A85">流程</text><text x="456.0" y="586.0" text-anchor="middle" class="label"><tspan x="456.0" dy="0">规划代理</tspan></text><rect x="619.0" y="538.0" width="210.0" height="88.0" rx="18.0" ry="18.0" fill="#EAF2FB" stroke="#2D5F8B" stroke-width="1.8"/><line x1="635.0" y1="570.0" x2="813.0" y2="570.0" stroke="#2D5F8B" stroke-width="1.2" opacity="0.35"/><rect x="631.0" y="548.0" width="50.0" height="20" rx="10" ry="10" fill="#2D5F8B" opacity="0.12" stroke="#2D5F8B" stroke-width="0.8"/><text x="656.0" y="562.0" text-anchor="middle" class="small" fill="#2D5F8B">能力</text><text x="724.0" y="586.0" text-anchor="middle" class="label"><tspan x="724.0" dy="0">检索代理</tspan></text><rect x="887.0" y="538.0" width="210.0" height="88.0" rx="18.0" ry="18.0" fill="#EEF3F8" stroke="#4E6A85" stroke-width="1.8"/><line x1="903.0" y1="570.0" x2="1081.0" y2="570.0" stroke="#4E6A85" stroke-width="1.2" opacity="0.35"/><rect x="899.0" y="548.0" width="50.0" height="20" rx="10" ry="10" fill="#4E6A85" opacity="0.12" stroke="#4E6A85" stroke-width="0.8"/><text x="924.0" y="562.0" text-anchor="middle" class="small" fill="#4E6A85">流程</text><text x="992.0" y="586.0" text-anchor="middle" class="label"><tspan x="992.0" dy="0">写作代理</tspan></text><rect x="83.0" y="650.0" width="210.0" height="88.0" rx="18.0" ry="18.0" fill="#EEF3F8" stroke="#4E6A85" stroke-width="1.8"/><line x1="99.0" y1="682.0" x2="277.0" y2="682.0" stroke="#4E6A85" stroke-width="1.2" opacity="0.35"/><rect x="95.0" y="660.0" width="50.0" height="20" rx="10" ry="10" fill="#4E6A85" opacity="0.12" stroke="#4E6A85" stroke-width="0.8"/><text x="120.0" y="674.0" text-anchor="middle" class="small" fill="#4E6A85">流程</text><text x="188.0" y="698.0" text-anchor="middle" class="label"><tspan x="188.0" dy="0">校核代理</tspan></text><rect x="351.0" y="650.0" width="210.0" height="88.0" rx="18.0" ry="18.0" fill="#EAF2FB" stroke="#2D5F8B" stroke-width="1.8"/><line x1="367.0" y1="682.0" x2="545.0" y2="682.0" stroke="#2D5F8B" stroke-width="1.2" opacity="0.35"/><rect x="363.0" y="660.0" width="50.0" height="20" rx="10" ry="10" fill="#2D5F8B" opacity="0.12" stroke="#2D5F8B" stroke-width="0.8"/><text x="388.0" y="674.0" text-anchor="middle" class="small" fill="#2D5F8B">能力</text><text x="456.0" y="698.0" text-anchor="middle" class="label"><tspan x="456.0" dy="0">排版导出服务</tspan></text><rect x="127.7" y="876.0" width="210.0" height="72.0" rx="18" ry="18" fill="#F9EFE6" stroke="#A66A3F" stroke-width="1.8"/><ellipse cx="232.7" cy="876.0" rx="105.0" ry="12" fill="#F9EFE6" stroke="#A66A3F" stroke-width="1.8"/><ellipse cx="232.7" cy="948.0" rx="105.0" ry="12" fill="none" stroke="#A66A3F" stroke-width="1.5"/><rect x="139.7" y="874.0" width="50.0" height="20" rx="10" ry="10" fill="#A66A3F" opacity="0.12" stroke="#A66A3F" stroke-width="0.8"/><text x="164.7" y="888.0" text-anchor="middle" class="small" fill="#A66A3F">数据</text><text x="232.7" y="912.0" text-anchor="middle" class="label"><tspan x="232.7" dy="0">知识库与向量索引</tspan></text><rect x="485.0" y="876.0" width="210.0" height="72.0" rx="18" ry="18" fill="#F9EFE6" stroke="#A66A3F" stroke-width="1.8"/><ellipse cx="590.0" cy="876.0" rx="105.0" ry="12" fill="#F9EFE6" stroke="#A66A3F" stroke-width="1.8"/><ellipse cx="590.0" cy="948.0" rx="105.0" ry="12" fill="none" stroke="#A66A3F" stroke-width="1.5"/><rect x="497.0" y="874.0" width="50.0" height="20" rx="10" ry="10" fill="#A66A3F" opacity="0.12" stroke="#A66A3F" stroke-width="0.8"/><text x="522.0" y="888.0" text-anchor="middle" class="small" fill="#A66A3F">数据</text><text x="590.0" y="912.0" text-anchor="middle" class="label"><tspan x="590.0" dy="0">元数据与版本库</tspan></text><rect x="619.0" y="650.0" width="210.0" height="88.0" rx="18.0" ry="18.0" fill="#EAF2FB" stroke="#2D5F8B" stroke-width="1.8"/><line x1="635.0" y1="682.0" x2="813.0" y2="682.0" stroke="#2D5F8B" stroke-width="1.2" opacity="0.35"/><rect x="631.0" y="660.0" width="50.0" height="20" rx="10" ry="10" fill="#2D5F8B" opacity="0.12" stroke="#2D5F8B" stroke-width="0.8"/><text x="656.0" y="674.0" text-anchor="middle" class="small" fill="#2D5F8B">能力</text><text x="724.0" y="698.0" text-anchor="middle" class="label"><tspan x="724.0" dy="0">模型适配层</tspan></text><rect x="842.3" y="876.0" width="210.0" height="72.0" rx="18" ry="18" fill="#F9EFE6" stroke="#A66A3F" stroke-width="1.8"/><ellipse cx="947.3" cy="876.0" rx="105.0" ry="12" fill="#F9EFE6" stroke="#A66A3F" stroke-width="1.8"/><ellipse cx="947.3" cy="948.0" rx="105.0" ry="12" fill="none" stroke="#A66A3F" stroke-width="1.5"/><rect x="854.3" y="874.0" width="50.0" height="20" rx="10" ry="10" fill="#A66A3F" opacity="0.12" stroke="#A66A3F" stroke-width="0.8"/><text x="879.3" y="888.0" text-anchor="middle" class="small" fill="#A66A3F">数据</text><text x="947.3" y="912.0" text-anchor="middle" class="label"><tspan x="947.3" dy="0">日志与审计</tspan></text></svg>