<svg xmlns="http://www.w3.org/2000/svg" width="1180" height="1136" viewBox="0 0 1180 1136" role="img" aria-label="智能写作代理系统总体架构"><defs><marker id="arrow-solid" markerWidth="12" markerHeight="12" refX="10" refY="4" orient="auto" markerUnits="strokeWidth"><path d="M0,0 L0,8 L10,4 z" fill="#556B7D"/></marker><marker id="arrow-dashed" markerWidth="12" markerHeight="12" refX="10" refY="4" orient="auto" markerUnits="strokeWidth"><path d="M0,0 L0,8 L10,4 z" fill="#8B7B55"/></marker></defs><style>text,tspan{font-family:Microsoft YaHei, PingFang SC, Hiragino Sans GB, Noto Sans CJK SC, SimHei, SimSun, Arial Unicode MS, Segoe UI, Arial, sans-serif;} .small{font-size:12px;fill:#4B5868} .label{font-size:15px;font-weight:600;fill:#1F2D3D} .subtitle{font-size:11px;fill:#556270} .lane{font-size:14px;font-weight:700;fill:#34495E} .caption{font-size:16px;font-weight:700;fill:#24364A}</style><rect x="0" y="0" width="100%" height="100%" fill="#FFFFFF"/><rect x="20" y="20" width="1140" height="1096" rx="20" ry="20" fill="#FFFFFF" stroke="#C8D2DC" stroke-width="1.3"/><text x="590.0" y="48" text-anchor="middle" class="caption">智能写作代理系统总体架构</text><rect x="36.0" y="74.0" width="1108.0" height="190.0" rx="18" ry="18" fill="#F7F9FC" stroke="#D6DEE6" stroke-width="1.0"/><rect x="50.0" y="86.0" width="108" height="24" rx="12" ry="12" fill="#E3EBF4" stroke="#C7D3DF" stroke-width="0.8"/><text x="104.0" y="102.0" text-anchor="middle" class="lane">接入层</text><rect x="36.0" y="282.0" width="1108.0" height="190.0" rx="18" ry="18" fill="#F2F5F8" stroke="#D6DEE6" stroke-width="1.0"/><rect x="50.0" y="294.0" width="108" height="24" rx="12" ry="12" fill="#E3EBF4" stroke="#C7D3DF" stroke-width="0.8"/><text x="104.0" y="310.0" text-anchor="middle" class="lane">编排层</text><rect x="36.0" y="490.0" width="1108.0" height="190.0" rx="18" ry="18" fill="#F8FAFC" stroke="#D6DEE6" stroke-width="1.0"/><rect x="50.0" y="502.0" width="108" height="24" rx="12" ry="12" fill="#E3EBF4" stroke="#C7D3DF" stroke-width="0.8"/><text x="104.0" y="518.0" text-anchor="middle" class="lane">能力层</text><rect x="36.0" y="698.0" width="1108.0" height="190.0" rx="18" ry="18" fill="#F3F7FB" stroke="#D6DEE6" stroke-width="1.0"/><rect x="50.0" y="710.0" width="108" height="24" rx="12" ry="12" fill="#E3EBF4" stroke="#C7D3DF" stroke-width="0.8"/><text x="104.0" y="726.0" text-anchor="middle" class="lane">数据层</text><rect x="36.0" y="906.0" width="1108.0" height="190.0" rx="18" ry="18" fill="#F7F6F2" stroke="#D6DEE6" stroke-width="1.0"/><rect x="50.0" y="918.0" width="108" height="24" rx="12" ry="12" fill="#E3EBF4" stroke="#C7D3DF" stroke-width="0.8"/><text x="104.0" y="934.0" text-anchor="middle" class="lane">治理层</text><path d="M 427.0 166.0 L 590.0 166.0 L 590.0 166.0 L 753.0 166.0" fill="none" stroke="#556B7D" stroke-width="2.2" marker-end="url(#arrow-solid)"/><rect x="525.0" y="142.0" width="130.0" height="20" rx="10" ry="10" fill="#FFFFFF" stroke="#D4DCE4" stroke-width="0.9"/><text x="590.0" y="156.0" text-anchor="middle" class="small">SSO/OAuth2</text><path d="M 858.0 210.0 L 858.0 270.0 L 232.7 270.0 L 232.7 330.0" fill="none" stroke="#556B7D" stroke-width="2.2" marker-end="url(#arrow-solid)"/><rect x="513.3" y="246.0" width="64.0" height="20" rx="10" ry="10" fill="#FFFFFF" stroke="#D4DCE4" stroke-width="0.9"/><text x="545.3" y="260.0" text-anchor="middle" class="small">任务请求</text><path d="M 337.7 374.0 L 411.3 374.0 L 411.3 374.0 L 485.0 374.0" fill="none" stroke="#556B7D" stroke-width="2.2" marker-end="url(#arrow-solid)"/><rect x="379.3" y="350.0" width="64.0" height="20" rx="10" ry="10" fill="#FFFFFF" stroke="#D4DCE4" stroke-width="0.9"/><text x="411.3" y="364.0" text-anchor="middle" class="small">代理调度</text><path d="M 695.0 374.0 L 768.7 374.0 L 768.7 374.0 L 842.3 374.0" fill="none" stroke="#556B7D" stroke-width="2.2" marker-end="url(#arrow-solid)"/><rect x="736.7" y="350.0" width="64.0" height="20" rx="10" ry="10" fill="#FFFFFF" stroke="#D4DCE4" stroke-width="0.9"/><text x="768.7" y="364.0" text-anchor="middle" class="small">策略装配</text><path d="M 590.0 418.0 L 590.0 478.0 L 188.0 478.0 L 188.0 538.0" fill="none" stroke="#556B7D" stroke-width="2.2" marker-end="url(#arrow-solid)"/><rect x="357.0" y="454.0" width="64.0" height="20" rx="10" ry="10" fill="#FFFFFF" stroke="#D4DCE4" stroke-width="0.9"/><text x="389.0" y="468.0" text-anchor="middle" class="small">检索调用</text><path d="M 590.0 418.0 L 590.0 478.0 L 456.0 478.0 L 456.0 538.0" fill="none" stroke="#556B7D" stroke-width="2.2" marker-end="url(#arrow-solid)"/><rect x="491.0" y="454.0" width="64.0" height="20" rx="10" ry="10" fill="#FFFFFF" stroke="#D4DCE4" stroke-width="0.9"/><text x="523.0" y="468.0" text-anchor="middle" class="small">生成调用</text><path d="M 590.0 418.0 L 590.0 478.0 L 724.0 478.0 L 724.0 538.0" fill="none" stroke="#556B7D" stroke-width="2.2" marker-end="url(#arrow-solid)"/><rect x="625.0" y="454.0" width="64.0" height="20" rx="10" ry="10" fill="#FFFFFF" stroke="#D4DCE4" stroke-width="0.9"/><text x="657.0" y="468.0" text-anchor="middle" class="small">核验调用</text><path d="M 590.0 418.0 L 590.0 478.0 L 992.0 478.0 L 992.0 538.0" fill="none" stroke="#556B7D" stroke-width="2.2" marker-end="url(#arrow-solid)"/><rect x="759.0" y="454.0" width="64.0" height="20" rx="10" ry="10" fill="#FFFFFF" stroke="#D4DCE4" stroke-width="0.9"/><text x="791.0" y="468.0" text-anchor="middle" class="small">成稿输出</text><path d="M 188.0 626.0 L 188.0 686.0 L 232.7 686.0 L 232.7 746.0" fill="none" stroke="#556B7D" stroke-width="2.2" marker-end="url(#arrow-solid)"/><rect x="178.3" y="662.0" width="64.0" height="20" rx="10" ry="10" fill="#FFFFFF" stroke="#D4DCE4" stroke-width="0.9"/><text x="210.3" y="676.0" text-anchor="middle" class="small">语义检索</text><path d="M 188.0 626.0 L 188.0 686.0 L 590.0 686.0 L 590.0 746.0" fill="none" stroke="#556B7D" stroke-width="2.2" marker-end="url(#arrow-solid)"/><rect x="351.5" y="662.0" width="75.0" height="20" rx="10" ry="10" fill="#FFFFFF" stroke="#D4DCE4" stroke-width="0.9"/><text x="389.0" y="676.0" text-anchor="middle" class="small">项目上下文</text><path d="M 188.0 626.0 L 188.0 686.0 L 947.3 686.0 L 947.3 746.0" fill="none" stroke="#556B7D" stroke-width="2.2" marker-end="url(#arrow-solid)"/><rect x="535.7" y="662.0" width="64.0" height="20" rx="10" ry="10" fill="#FFFFFF" stroke="#D4DCE4" stroke-width="0.9"/><text x="567.7" y="676.0" text-anchor="middle" class="small">向量召回</text><path d="M 456.0 626.0 L 456.0 790.0 L 322.0 790.0 L 322.0 954.0" fill="none" stroke="#556B7D" stroke-width="2.2" marker-end="url(#arrow-solid)"/><rect x="357.0" y="766.0" width="64.0" height="20" rx="10" ry="10" fill="#FFFFFF" stroke="#D4DCE4" stroke-width="0.9"/><text x="389.0" y="780.0" text-anchor="middle" class="small">内容过滤</text><path d="M 992.0 626.0 L 992.0 790.0 L 858.0 790.0 L 858.0 954.0" fill="none" stroke="#556B7D" stroke-width="2.2" marker-end="url(#arrow-solid)"/><rect x="876.5" y="766.0" width="97.0" height="20" rx="10" ry="10" fill="#FFFFFF" stroke="#D4DCE4" stroke-width="0.9"/><text x="925.0" y="780.0" text-anchor="middle" class="small">版本与审计日志</text><path d="M 232.7 418.0 L 232.7 686.0 L 858.0 686.0 L 858.0 954.0" fill="none" stroke="#556B7D" stroke-width="2.2" marker-end="url(#arrow-solid)"/><rect x="513.3" y="662.0" width="64.0" height="20" rx="10" ry="10" fill="#FFFFFF" stroke="#D4DCE4" stroke-width="0.9"/><text x="545.3" y="676.0" text-anchor="middle" class="small">链路指标</text><rect x="217.0" y="122.0" width="210.0" height="88.0" rx="44.0" ry="44.0" fill="#ECF4EA" stroke="#5B8A61" stroke-width="1.8"/><line x1="233.0" y1="154.0" x2="411.0" y2="154.0" stroke="#5B8A61" stroke-width="1.2" opacity="0.35"/><rect x="229.0" y="132.0" width="50.0" height="20" rx="10" ry="10" fill="#5B8A61" opacity="0.12" stroke="#5B8A61" stroke-width="0.8"/><text x="254.0" y="146.0" text-anchor="middle" class="small" fill="#5B8A61">入口</text><text x="322.0" y="170.0" text-anchor="middle" class="label"><tspan x="322.0" dy="0">科研用户门户</tspan></text><rect x="753.0" y="122.0" width="210.0" height="88.0" rx="18.0" ry="18.0" fill="#F0F0EB" stroke="#5A6B5D" stroke-width="1.8" stroke-dasharray="6,4"/><line x1="769.0" y1="154.0" x2="947.0" y2="154.0" stroke="#5A6B5D" stroke-width="1.2" opacity="0.35"/><rect x="765.0" y="132.0" width="50.0" height="20" rx="10" ry="10" fill="#5A6B5D" opacity="0.12" stroke="#5A6B5D" stroke-width="0.8"/><text x="790.0" y="146.0" text-anchor="middle" class="small" fill="#5A6B5D">治理</text><text x="858.0" y="170.0" text-anchor="middle" class="label"><tspan x="858.0" dy="0">统一认证与权限控</tspan><tspan x="858.0" dy="16">制</tspan></text><rect x="127.7" y="330.0" width="210.0" height="88.0" rx="18.0" ry="18.0" fill="#EAF2FB" stroke="#2D5F8B" stroke-width="1.8"/><line x1="143.7" y1="362.0" x2="321.7" y2="362.0" stroke="#2D5F8B" stroke-width="1.2" opacity="0.35"/><rect x="139.7" y="340.0" width="50.0" height="20" rx="10" ry="10" fill="#2D5F8B" opacity="0.12" stroke="#2D5F8B" stroke-width="0.8"/><text x="164.7" y="354.0" text-anchor="middle" class="small" fill="#2D5F8B">能力</text><text x="232.7" y="378.0" text-anchor="middle" class="label"><tspan x="232.7" dy="0">任务编排中心</tspan></text><rect x="485.0" y="330.0" width="210.0" height="88.0" rx="18.0" ry="18.0" fill="#EEF3F8" stroke="#4E6A85" stroke-width="1.8"/><line x1="501.0" y1="362.0" x2="679.0" y2="362.0" stroke="#4E6A85" stroke-width="1.2" opacity="0.35"/><rect x="497.0" y="340.0" width="50.0" height="20" rx="10" ry="10" fill="#4E6A85" opacity="0.12" stroke="#4E6A85" stroke-width="0.8"/><text x="522.0" y="354.0" text-anchor="middle" class="small" fill="#4E6A85">流程</text><text x="590.0" y="378.0" text-anchor="middle" class="label"><tspan x="590.0" dy="0">写作代理管理器</tspan></text><rect x="842.3" y="330.0" width="210.0" height="88.0" rx="18.0" ry="18.0" fill="#F0F0EB" stroke="#5A6B5D" stroke-width="1.8" stroke-dasharray="6,4"/><line x1="858.3" y1="362.0" x2="1036.3" y2="362.0" stroke="#5A6B5D" stroke-width="1.2" opacity="0.35"/><rect x="854.3" y="340.0" width="50.0" height="20" rx="10" ry="10" fill="#5A6B5D" opacity="0.12" stroke="#5A6B5D" stroke-width="0.8"/><text x="879.3" y="354.0" text-anchor="middle" class="small" fill="#5A6B5D">治理</text><text x="947.3" y="378.0" text-anchor="middle" class="label"><tspan x="947.3" dy="0">提示模板与策略库</tspan></text><rect x="83.0" y="538.0" width="210.0" height="88.0" rx="18.0" ry="18.0" fill="#EAF2FB" stroke="#2D5F8B" stroke-width="1.8"/><line x1="99.0" y1="570.0" x2="277.0" y2="570.0" stroke="#2D5F8B" stroke-width="1.2" opacity="0.35"/><rect x="95.0" y="548.0" width="50.0" height="20" rx="10" ry="10" fill="#2D5F8B" opacity="0.12" stroke="#2D5F8B" stroke-width="0.8"/><text x="120.0" y="562.0" text-anchor="middle" class="small" fill="#2D5F8B">能力</text><text x="188.0" y="586.0" text-anchor="middle" class="label"><tspan x="188.0" dy="0">知识检索服务</tspan></text><rect x="351.0" y="538.0" width="210.0" height="88.0" rx="18.0" ry="18.0" fill="#EAF2FB" stroke="#2D5F8B" stroke-width="1.8"/><line x1="367.0" y1="570.0" x2="545.0" y2="570.0" stroke="#2D5F8B" stroke-width="1.2" opacity="0.35"/><rect x="363.0" y="548.0" width="50.0" height="20" rx="10" ry="10" fill="#2D5F8B" opacity="0.12" stroke="#2D5F8B" stroke-width="0.8"/><text x="388.0" y="562.0" text-anchor="middle" class="small" fill="#2D5F8B">能力</text><text x="456.0" y="586.0" text-anchor="middle" class="label"><tspan x="456.0" dy="0">模型适配网关</tspan></text><polygon points="724.0,538.0 829.0,582.0 724.0,626.0 619.0,582.0" fill="#FBF2D8" stroke="#A97A12" stroke-width="1.8"/><rect x="631.0" y="548.0" width="50.0" height="20" rx="10" ry="10" fill="#A97A12" opacity="0.12" stroke="#A97A12" stroke-width="0.8"/><text x="656.0" y="562.0" text-anchor="middle" class="small" fill="#A97A12">校核</text><text x="724.0" y="580.2" text-anchor="middle" class="label"><tspan x="724.0" dy="0">事实核验与引用校</tspan><tspan x="724.0" dy="16">验</tspan></text><rect x="887.0" y="538.0" width="210.0" height="88.0" rx="18.0" ry="18.0" fill="#EAF2FB" stroke="#2D5F8B" stroke-width="1.8"/><line x1="903.0" y1="570.0" x2="1081.0" y2="570.0" stroke="#2D5F8B" stroke-width="1.2" opacity="0.35"/><rect x="899.0" y="548.0" width="50.0" height="20" rx="10" ry="10" fill="#2D5F8B" opacity="0.12" stroke="#2D5F8B" stroke-width="0.8"/><text x="924.0" y="562.0" text-anchor="middle" class="small" fill="#2D5F8B">能力</text><text x="992.0" y="586.0" text-anchor="middle" class="label"><tspan x="992.0" dy="0">文档生成与版本服</tspan><tspan x="992.0" dy="16">务</tspan></text><rect x="127.7" y="758.0" width="210.0" height="72.0" rx="18" ry="18" fill="#F9EFE6" stroke="#A66A3F" stroke-width="1.8"/><ellipse cx="232.7" cy="758.0" rx="105.0" ry="12" fill="#F9EFE6" stroke="#A66A3F" stroke-width="1.8"/><ellipse cx="232.7" cy="830.0" rx="105.0" ry="12" fill="none" stroke="#A66A3F" stroke-width="1.5"/><rect x="139.7" y="756.0" width="50.0" height="20" rx="10" ry="10" fill="#A66A3F" opacity="0.12" stroke="#A66A3F" stroke-width="0.8"/><text x="164.7" y="770.0" text-anchor="middle" class="small" fill="#A66A3F">数据</text><text x="232.7" y="794.0" text-anchor="middle" class="label"><tspan x="232.7" dy="0">科研知识库</tspan></text><rect x="485.0" y="746.0" width="210.0" height="88.0" rx="44.0" ry="44.0" fill="#ECF4EA" stroke="#5B8A61" stroke-width="1.8"/><line x1="501.0" y1="778.0" x2="679.0" y2="778.0" stroke="#5B8A61" stroke-width="1.2" opacity="0.35"/><rect x="497.0" y="756.0" width="50.0" height="20" rx="10" ry="10" fill="#5B8A61" opacity="0.12" stroke="#5B8A61" stroke-width="0.8"/><text x="522.0" y="770.0" text-anchor="middle" class="small" fill="#5B8A61">入口</text><text x="590.0" y="794.0" text-anchor="middle" class="label"><tspan x="590.0" dy="0">用户项目库</tspan></text><rect x="842.3" y="746.0" width="210.0" height="88.0" rx="18.0" ry="18.0" fill="#EEF3F8" stroke="#4E6A85" stroke-width="1.8"/><line x1="858.3" y1="778.0" x2="1036.3" y2="778.0" stroke="#4E6A85" stroke-width="1.2" opacity="0.35"/><rect x="854.3" y="756.0" width="50.0" height="20" rx="10" ry="10" fill="#4E6A85" opacity="0.12" stroke="#4E6A85" stroke-width="0.8"/><text x="879.3" y="770.0" text-anchor="middle" class="small" fill="#4E6A85">流程</text><text x="947.3" y="794.0" text-anchor="middle" class="label"><tspan x="947.3" dy="0">向量索引与缓存</tspan></text><rect x="217.0" y="954.0" width="210.0" height="88.0" rx="18.0" ry="18.0" fill="#F0F0EB" stroke="#5A6B5D" stroke-width="1.8" stroke-dasharray="6,4"/><line x1="233.0" y1="986.0" x2="411.0" y2="986.0" stroke="#5A6B5D" stroke-width="1.2" opacity="0.35"/><rect x="229.0" y="964.0" width="50.0" height="20" rx="10" ry="10" fill="#5A6B5D" opacity="0.12" stroke="#5A6B5D" stroke-width="0.8"/><text x="254.0" y="978.0" text-anchor="middle" class="small" fill="#5A6B5D">治理</text><text x="322.0" y="1002.0" text-anchor="middle" class="label"><tspan x="322.0" dy="0">安全治理与脱敏</tspan></text><rect x="753.0" y="966.0" width="210.0" height="72.0" rx="18" ry="18" fill="#F9EFE6" stroke="#A66A3F" stroke-width="1.8"/><ellipse cx="858.0" cy="966.0" rx="105.0" ry="12" fill="#F9EFE6" stroke="#A66A3F" stroke-width="1.8"/><ellipse cx="858.0" cy="1038.0" rx="105.0" ry="12" fill="none" stroke="#A66A3F" stroke-width="1.5"/><rect x="765.0" y="964.0" width="50.0" height="20" rx="10" ry="10" fill="#A66A3F" opacity="0.12" stroke="#A66A3F" stroke-width="0.8"/><text x="790.0" y="978.0" text-anchor="middle" class="small" fill="#A66A3F">数据</text><text x="858.0" y="1002.0" text-anchor="middle" class="label"><tspan x="858.0" dy="0">日志审计与评测</tspan></text></svg>