<svg xmlns="http://www.w3.org/2000/svg" width="1080" height="956" viewBox="0 0 1080 956" role="img" aria-label="高校科研写作代理的数据治理与调用分流流程"><defs><marker id="arrow-solid" markerWidth="12" markerHeight="12" refX="10" refY="4" orient="auto" markerUnits="strokeWidth"><path d="M0,0 L0,8 L10,4 z" fill="#556B7D"/></marker><marker id="arrow-dashed" markerWidth="12" markerHeight="12" refX="10" refY="4" orient="auto" markerUnits="strokeWidth"><path d="M0,0 L0,8 L10,4 z" fill="#8B7B55"/></marker></defs><style>text,tspan{font-family:Microsoft YaHei, PingFang SC, Hiragino Sans GB, Noto Sans CJK SC, SimHei, SimSun, Arial Unicode MS, Segoe UI, Arial, sans-serif;} .small{font-size:12px;fill:#4B5868} .label{font-size:15px;font-weight:600;fill:#1F2D3D} .subtitle{font-size:11px;fill:#556270} .lane{font-size:14px;font-weight:700;fill:#34495E} .caption{font-size:16px;font-weight:700;fill:#24364A}</style><rect x="0" y="0" width="100%" height="100%" fill="#FFFFFF"/><rect x="20" y="20" width="1040" height="916" rx="20" ry="20" fill="#FFFFFF" stroke="#C8D2DC" stroke-width="1.3"/><text x="540.0" y="48" text-anchor="middle" class="caption">高校科研写作代理的数据治理与调用分流流程</text><rect x="36.0" y="74.0" width="1008.0" height="308.0" rx="18" ry="18" fill="#F7F9FC" stroke="#D6DEE6" stroke-width="1.0"/><rect x="50.0" y="86.0" width="108" height="24" rx="12" ry="12" fill="#E3EBF4" stroke="#C7D3DF" stroke-width="0.8"/><text x="104.0" y="102.0" text-anchor="middle" class="lane">任务输入</text><rect x="36.0" y="400.0" width="1008.0" height="190.0" rx="18" ry="18" fill="#F2F5F8" stroke="#D6DEE6" stroke-width="1.0"/><rect x="50.0" y="412.0" width="108" height="24" rx="12" ry="12" fill="#E3EBF4" stroke="#C7D3DF" stroke-width="0.8"/><text x="104.0" y="428.0" text-anchor="middle" class="lane">分析处理</text><rect x="36.0" y="608.0" width="1008.0" height="308.0" rx="18" ry="18" fill="#F8FAFC" stroke="#D6DEE6" stroke-width="1.0"/><rect x="50.0" y="620.0" width="108" height="24" rx="12" ry="12" fill="#E3EBF4" stroke="#C7D3DF" stroke-width="0.8"/><text x="104.0" y="636.0" text-anchor="middle" class="lane">结果校核</text><path d="M 402.0 166.0 L 540.0 166.0 L 540.0 170.0 L 678.0 170.0" fill="none" stroke="#556B7D" stroke-width="2.2" marker-end="url(#arrow-solid)"/><path d="M 783.0 218.0 L 540.0 218.0 L 540.0 234.0 L 297.0 234.0" fill="none" stroke="#556B7D" stroke-width="2.2" marker-end="url(#arrow-solid)"/><path d="M 297.0 322.0 L 297.0 385.0 L 297.0 385.0 L 297.0 448.0" fill="none" stroke="#556B7D" stroke-width="2.2" marker-end="url(#arrow-solid)"/><rect x="265.0" y="361.0" width="64.0" height="20" rx="10" ry="10" fill="#FFFFFF" stroke="#D4DCE4" stroke-width="0.9"/><text x="297.0" y="375.0" text-anchor="middle" class="small">涉敏材料</text><path d="M 297.0 322.0 L 297.0 385.0 L 783.0 385.0 L 783.0 448.0" fill="none" stroke="#556B7D" stroke-width="2.2" marker-end="url(#arrow-solid)"/><rect x="508.0" y="361.0" width="64.0" height="20" rx="10" ry="10" fill="#FFFFFF" stroke="#D4DCE4" stroke-width="0.9"/><text x="540.0" y="375.0" text-anchor="middle" class="small">公开材料</text><path d="M 783.0 536.0 L 783.0 596.0 L 297.0 596.0 L 297.0 656.0" fill="none" stroke="#556B7D" stroke-width="2.2" marker-end="url(#arrow-solid)"/><path d="M 297.0 544.0 L 297.0 600.0 L 783.0 600.0 L 783.0 656.0" fill="none" stroke="#556B7D" stroke-width="2.2" marker-end="url(#arrow-solid)"/><path d="M 402.0 700.0 L 540.0 700.0 L 540.0 700.0 L 678.0 700.0" fill="none" stroke="#556B7D" stroke-width="2.2" marker-end="url(#arrow-solid)"/><path d="M 783.0 744.0 L 783.0 756.0 L 297.0 756.0 L 297.0 768.0" fill="none" stroke="#556B7D" stroke-width="2.2" marker-end="url(#arrow-solid)"/><rect x="192.0" y="122.0" width="210.0" height="88.0" rx="18.0" ry="18.0" fill="#EEF3F8" stroke="#4E6A85" stroke-width="1.8"/><line x1="208.0" y1="154.0" x2="386.0" y2="154.0" stroke="#4E6A85" stroke-width="1.2" opacity="0.35"/><rect x="204.0" y="132.0" width="50.0" height="20" rx="10" ry="10" fill="#4E6A85" opacity="0.12" stroke="#4E6A85" stroke-width="0.8"/><text x="229.0" y="146.0" text-anchor="middle" class="small" fill="#4E6A85">流程</text><text x="297.0" y="170.0" text-anchor="middle" class="label"><tspan x="297.0" dy="0">任务提交</tspan></text><rect x="678.0" y="134.0" width="210.0" height="72.0" rx="18" ry="18" fill="#F9EFE6" stroke="#A66A3F" stroke-width="1.8"/><ellipse cx="783.0" cy="134.0" rx="105.0" ry="12" fill="#F9EFE6" stroke="#A66A3F" stroke-width="1.8"/><ellipse cx="783.0" cy="206.0" rx="105.0" ry="12" fill="none" stroke="#A66A3F" stroke-width="1.5"/><rect x="690.0" y="132.0" width="50.0" height="20" rx="10" ry="10" fill="#A66A3F" opacity="0.12" stroke="#A66A3F" stroke-width="0.8"/><text x="715.0" y="146.0" text-anchor="middle" class="small" fill="#A66A3F">数据</text><text x="783.0" y="170.0" text-anchor="middle" class="label"><tspan x="783.0" dy="0">数据分级</tspan></text><polygon points="297.0,234.0 402.0,278.0 297.0,322.0 192.0,278.0" fill="#FBF2D8" stroke="#A97A12" stroke-width="1.8"/><rect x="204.0" y="244.0" width="50.0" height="20" rx="10" ry="10" fill="#A97A12" opacity="0.12" stroke="#A97A12" stroke-width="0.8"/><text x="229.0" y="258.0" text-anchor="middle" class="small" fill="#A97A12">校核</text><text x="297.0" y="276.2" text-anchor="middle" class="label"><tspan x="297.0" dy="0">模型路由</tspan></text><rect x="192.0" y="460.0" width="210.0" height="72.0" rx="18" ry="18" fill="#F9EFE6" stroke="#A66A3F" stroke-width="1.8"/><ellipse cx="297.0" cy="460.0" rx="105.0" ry="12" fill="#F9EFE6" stroke="#A66A3F" stroke-width="1.8"/><ellipse cx="297.0" cy="532.0" rx="105.0" ry="12" fill="none" stroke="#A66A3F" stroke-width="1.5"/><rect x="204.0" y="458.0" width="50.0" height="20" rx="10" ry="10" fill="#A66A3F" opacity="0.12" stroke="#A66A3F" stroke-width="0.8"/><text x="229.0" y="472.0" text-anchor="middle" class="small" fill="#A66A3F">数据</text><text x="297.0" y="496.0" text-anchor="middle" class="label"><tspan x="297.0" dy="0">私有模型与校内知</tspan><tspan x="297.0" dy="16">识…</tspan></text><rect x="678.0" y="448.0" width="210.0" height="88.0" rx="18.0" ry="18.0" fill="#EEF3F8" stroke="#4E6A85" stroke-width="1.8"/><line x1="694.0" y1="480.0" x2="872.0" y2="480.0" stroke="#4E6A85" stroke-width="1.2" opacity="0.35"/><rect x="690.0" y="458.0" width="50.0" height="20" rx="10" ry="10" fill="#4E6A85" opacity="0.12" stroke="#4E6A85" stroke-width="0.8"/><text x="715.0" y="472.0" text-anchor="middle" class="small" fill="#4E6A85">流程</text><text x="783.0" y="496.0" text-anchor="middle" class="label"><tspan x="783.0" dy="0">脱敏处理</tspan></text><rect x="192.0" y="656.0" width="210.0" height="88.0" rx="18.0" ry="18.0" fill="#EAF2FB" stroke="#2D5F8B" stroke-width="1.8"/><line x1="208.0" y1="688.0" x2="386.0" y2="688.0" stroke="#2D5F8B" stroke-width="1.2" opacity="0.35"/><rect x="204.0" y="666.0" width="50.0" height="20" rx="10" ry="10" fill="#2D5F8B" opacity="0.12" stroke="#2D5F8B" stroke-width="0.8"/><text x="229.0" y="680.0" text-anchor="middle" class="small" fill="#2D5F8B">能力</text><text x="297.0" y="704.0" text-anchor="middle" class="label"><tspan x="297.0" dy="0">外部模型调用</tspan></text><rect x="678.0" y="656.0" width="210.0" height="88.0" rx="18.0" ry="18.0" fill="#EEF3F8" stroke="#4E6A85" stroke-width="1.8"/><line x1="694.0" y1="688.0" x2="872.0" y2="688.0" stroke="#4E6A85" stroke-width="1.2" opacity="0.35"/><rect x="690.0" y="666.0" width="50.0" height="20" rx="10" ry="10" fill="#4E6A85" opacity="0.12" stroke="#4E6A85" stroke-width="0.8"/><text x="715.0" y="680.0" text-anchor="middle" class="small" fill="#4E6A85">流程</text><text x="783.0" y="704.0" text-anchor="middle" class="label"><tspan x="783.0" dy="0">人工复核</tspan></text><rect x="192.0" y="780.0" width="210.0" height="72.0" rx="18" ry="18" fill="#F9EFE6" stroke="#A66A3F" stroke-width="1.8"/><ellipse cx="297.0" cy="780.0" rx="105.0" ry="12" fill="#F9EFE6" stroke="#A66A3F" stroke-width="1.8"/><ellipse cx="297.0" cy="852.0" rx="105.0" ry="12" fill="none" stroke="#A66A3F" stroke-width="1.5"/><rect x="204.0" y="778.0" width="50.0" height="20" rx="10" ry="10" fill="#A66A3F" opacity="0.12" stroke="#A66A3F" stroke-width="0.8"/><text x="229.0" y="792.0" text-anchor="middle" class="small" fill="#A66A3F">数据</text><text x="297.0" y="816.0" text-anchor="middle" class="label"><tspan x="297.0" dy="0">日志归档</tspan></text></svg>